<svg width="303" height="50" viewBox="0 0 303 50" fill="none" xmlns="http://www.w3.org/2000/svg">
<path fill-rule="evenodd" clip-rule="evenodd" d="M48.4974 3.63804C38.1026 3.63804 28.991 7.70371 23.9081 13.8034L2.35462e-06 0L0 50L23.9081 36.1966C28.991 42.2963 38.1026 46.362 48.4974 46.362C54.6127 46.362 60.2839 44.9548 64.9519 42.5543C67.1393 41.4294 69.1064 40.0863 70.7958 38.5677C74.9002 34.8781 77.3649 30.152 77.3649 25C77.3649 13.2021 64.4405 3.63804 48.4974 3.63804ZM67.55 30.1962C70.4197 30.1962 72.7461 27.8698 72.7461 25C72.7461 22.1302 70.4197 19.8038 67.55 19.8038C64.6802 19.8038 62.3538 22.1302 62.3538 25C62.3538 27.8698 64.6802 30.1962 67.55 30.1962Z" fill="#F56E05"/>
<path fill-rule="evenodd" clip-rule="evenodd" d="M90.7179 12.577V38.6825H94.0019V28.6227H99.1149C101.983 28.6227 104.172 27.9091 105.683 26.4819C107.207 25.0408 107.969 23.094 107.969 20.6414C107.969 18.1611 107.207 16.2004 105.683 14.7594C104.172 13.3045 101.983 12.577 99.1149 12.577H90.7179ZM99.1149 25.796H94.0019V15.3621H99.1149C100.93 15.3621 102.302 15.8402 103.23 16.7963C104.172 17.7524 104.644 19.0341 104.644 20.6414C104.644 22.2211 104.172 23.4751 103.23 24.4034C102.302 25.3318 100.93 25.796 99.1149 25.796Z" fill="#F56E05"/>
<path d="M113.818 18.7708V38.6825H117.061V29.7035C117.061 28.0546 117.22 26.6205 117.539 25.4011C117.871 24.1817 118.398 23.2395 119.118 22.5744C119.839 21.8954 120.788 21.5559 121.966 21.5559C122.326 21.5559 122.735 21.6044 123.192 21.7014C123.649 21.7846 124.072 21.8885 124.46 22.0132L124.668 18.8124C124.294 18.6877 123.92 18.5976 123.546 18.5422C123.185 18.4729 122.783 18.4383 122.34 18.4383C120.996 18.4383 119.853 18.8539 118.911 19.6853C118.142 20.3621 117.525 21.3333 117.061 22.5988V18.7708H113.818Z" fill="#F56E05"/>
<path d="M129.088 13.5539C129.476 13.928 130.002 14.1151 130.668 14.1151C131.333 14.1151 131.859 13.928 132.247 13.5539C132.635 13.1659 132.829 12.6601 132.829 12.0366C132.829 11.4269 132.635 10.9419 132.247 10.5817C131.859 10.2214 131.333 10.0413 130.668 10.0413C130.002 10.0413 129.476 10.2214 129.088 10.5817C128.7 10.9419 128.506 11.4269 128.506 12.0366C128.506 12.6601 128.7 13.1659 129.088 13.5539Z" fill="#F56E05"/>
<path d="M129.046 18.7708V38.6825H132.289V18.7708H129.046Z" fill="#F56E05"/>
<path d="M169.154 27.0015V38.6825H172.397V27.0015C172.397 25.214 172.099 23.6691 171.503 22.3665C170.907 21.064 170.048 20.0664 168.926 19.3736C167.817 18.6669 166.48 18.3135 164.914 18.3135C163.681 18.3135 162.58 18.5353 161.61 18.9787C160.64 19.4221 159.815 20.0941 159.136 20.9948C158.672 21.6009 158.283 22.3139 157.967 23.1336C157.876 22.8692 157.774 22.6135 157.661 22.3665C157.065 21.064 156.206 20.0664 155.083 19.3736C153.975 18.6669 152.638 18.3135 151.072 18.3135C149.492 18.3135 148.134 18.7015 146.998 19.4775C145.876 20.2534 145.003 21.362 144.379 22.803L144.005 18.8124H141.22V38.6825H144.462V29.2878C144.462 27.6112 144.698 26.1701 145.169 24.9646C145.64 23.7453 146.312 22.81 147.185 22.1587C148.058 21.5075 149.09 21.1818 150.282 21.1818C151.848 21.1818 153.081 21.6807 153.982 22.6783C154.896 23.6621 155.353 25.1032 155.353 27.0015V38.6825H158.554V29.0384C158.554 26.5858 159.032 24.6667 159.988 23.2811C160.945 21.8816 162.323 21.1818 164.125 21.1818C165.663 21.1818 166.882 21.6807 167.783 22.6783C168.697 23.6621 169.154 25.1032 169.154 27.0015Z" fill="#F56E05"/>
<path fill-rule="evenodd" clip-rule="evenodd" d="M182.396 37.8719C183.754 38.7448 185.292 39.1813 187.01 39.1813C188.438 39.1813 189.719 38.925 190.856 38.4123C191.992 37.8996 192.927 37.1721 193.661 36.2299C194.396 35.2738 194.867 34.1376 195.075 32.8212H191.708C191.528 34.0406 191.022 34.962 190.19 35.5856C189.359 36.2091 188.299 36.5209 187.01 36.5209C185.722 36.5209 184.655 36.2022 183.81 35.5648C182.964 34.9274 182.327 34.0614 181.897 32.9667C181.486 31.883 181.278 30.6567 181.274 29.2878H195.033C195.144 27.8883 195.068 26.5373 194.805 25.2348C194.555 23.9185 194.105 22.7407 193.454 21.7014C192.802 20.6622 191.943 19.8378 190.876 19.2281C189.809 18.6184 188.521 18.3135 187.01 18.3135C185.278 18.3135 183.733 18.7362 182.375 19.5814C181.031 20.4128 179.971 21.6114 179.195 23.1771C178.419 24.7429 178.031 26.6135 178.031 28.789C178.031 30.8259 178.419 32.6272 179.195 34.193C179.985 35.7588 181.052 36.9851 182.396 37.8719ZM181.293 27.2925C181.353 26.2952 181.562 25.3599 181.918 24.4866C182.348 23.4196 182.992 22.5605 183.851 21.9093C184.71 21.258 185.777 20.9324 187.052 20.9324C188.063 20.9324 188.895 21.1403 189.546 21.5559C190.197 21.9716 190.703 22.5259 191.063 23.2187C191.424 23.8977 191.666 24.6459 191.791 25.4635C191.894 26.0731 191.947 26.6828 191.951 27.2925H181.293Z" fill="#F56E05"/>
<path d="M205.017 38.246C206.472 38.8695 208.072 39.1813 209.818 39.1813C211.911 39.1813 213.677 38.8487 215.118 38.1836C216.559 37.5185 217.647 36.6248 218.382 35.5024C219.13 34.3801 219.504 33.126 219.504 31.7404C219.504 29.9529 218.957 28.498 217.862 27.3756C216.781 26.2533 215.305 25.3803 213.435 24.7568L208.031 22.8862C206.742 22.4428 205.793 21.9439 205.183 21.3897C204.587 20.8216 204.29 20.0595 204.29 19.1034C204.29 17.9394 204.768 16.9764 205.724 16.2143C206.68 15.4522 208.017 15.0711 209.735 15.0711C211.426 15.0711 212.728 15.4106 213.643 16.0896C214.571 16.7547 215.139 17.69 215.347 18.8955H218.548C218.326 16.8309 217.467 15.1889 215.97 13.9696C214.474 12.7363 212.396 12.1197 209.735 12.1197C206.867 12.1197 204.65 12.7571 203.084 14.0319C201.532 15.3067 200.756 16.9556 200.756 18.9787C200.756 20.78 201.31 22.1795 202.419 23.1771C203.527 24.1748 205.162 25.0616 207.324 25.8376L211.938 27.4588C213.268 27.8883 214.273 28.4495 214.952 29.1423C215.631 29.8213 215.97 30.715 215.97 31.8235C215.97 32.6134 215.714 33.3408 215.201 34.0059C214.703 34.6572 213.989 35.1837 213.061 35.5856C212.132 35.9874 211.038 36.1883 209.777 36.1883C208.613 36.1883 207.539 36.0013 206.555 35.6271C205.571 35.2392 204.781 34.6572 204.186 33.8812C203.59 33.0914 203.292 32.0868 203.292 30.8675H200.133C200.16 32.6826 200.618 34.2068 201.504 35.4401C202.391 36.6733 203.562 37.6086 205.017 38.246Z" fill="#F56E05"/>
<path d="M243.343 18.7708H240.101V28.4564C240.101 29.9668 239.845 31.3109 239.332 32.4887C238.833 33.6526 238.12 34.5671 237.191 35.2322C236.277 35.8973 235.196 36.2299 233.949 36.2299C232.439 36.2299 231.275 35.8003 230.457 34.9412C229.653 34.0821 229.252 32.8212 229.252 31.1584V18.7708H226.009V31.4079C226.009 33.1399 226.321 34.574 226.944 35.7103C227.568 36.8326 228.441 37.671 229.563 38.2252C230.686 38.7795 231.995 39.0566 233.492 39.0566C235.071 39.0566 236.443 38.6409 237.607 37.8095C238.65 37.0607 239.482 36.0236 240.101 34.6983V38.6825H243.343V18.7708Z" fill="#F56E05"/>
<path d="M254.088 38.3707C255.376 38.9111 256.984 39.1813 258.91 39.1813C260.545 39.1813 261.958 38.9042 263.15 38.3499C264.342 37.7957 265.263 37.0751 265.914 36.1883C266.566 35.3015 266.891 34.3593 266.891 33.3616C266.891 32.073 266.434 31.0129 265.519 30.1816C264.619 29.3502 263.316 28.6781 261.612 28.1655L257.663 26.8352C255.307 26.184 254.129 25.1725 254.129 23.8007C254.129 23.0663 254.504 22.4012 255.252 21.8054C256.014 21.1957 257.067 20.8908 258.411 20.8908C259.811 20.8908 260.891 21.1195 261.653 21.5767C262.416 22.0201 262.859 22.6783 262.984 23.5513H266.184C266.129 22.0548 265.429 20.8077 264.085 19.81C262.741 18.8124 260.85 18.3135 258.411 18.3135C256.111 18.3135 254.254 18.7985 252.841 19.7685C251.427 20.7384 250.721 22.0271 250.721 23.6344C250.721 24.9231 251.164 26.0316 252.051 26.9599C252.952 27.8745 254.24 28.595 255.917 29.1215L259.783 30.3686C261.03 30.7012 261.938 31.0892 262.506 31.5326C263.074 31.976 263.358 32.5856 263.358 33.3616C263.358 33.9713 263.143 34.5186 262.713 35.0036C262.284 35.4886 261.709 35.8696 260.988 36.1467C260.268 36.4239 259.478 36.5624 258.619 36.5624C256.984 36.5624 255.688 36.2507 254.732 35.6271C253.79 34.9897 253.284 34.0406 253.215 32.7796H250.097C250.139 34.0267 250.492 35.1352 251.157 36.1052C251.822 37.0613 252.799 37.8164 254.088 38.3707Z" fill="#F56E05"/>
<path d="M287.734 27.0015V38.6825H290.934V27.0015C290.934 25.214 290.637 23.6691 290.041 22.3665C289.445 21.064 288.586 20.0664 287.463 19.3736C286.355 18.6669 285.018 18.3135 283.452 18.3135C281.775 18.3135 280.348 18.75 279.17 19.623C278.203 20.337 277.427 21.3191 276.842 22.5691V10.3323H273.6V38.6825H276.842V29.2878C276.842 27.6112 277.078 26.1701 277.549 24.9646C278.02 23.7453 278.692 22.81 279.565 22.1587C280.438 21.5075 281.47 21.1818 282.662 21.1818C284.228 21.1818 285.461 21.6807 286.362 22.6783C287.276 23.6621 287.734 25.1032 287.734 27.0015Z" fill="#F56E05"/>
<path d="M298.937 13.5539C299.325 13.928 299.852 14.1151 300.517 14.1151C301.182 14.1151 301.708 13.928 302.096 13.5539C302.484 13.1659 302.678 12.6601 302.678 12.0366C302.678 11.4269 302.484 10.9419 302.096 10.5817C301.708 10.2214 301.182 10.0413 300.517 10.0413C299.852 10.0413 299.325 10.2214 298.937 10.5817C298.549 10.9419 298.355 11.4269 298.355 12.0366C298.355 12.6601 298.549 13.1659 298.937 13.5539Z" fill="#F56E05"/>
<path d="M298.896 18.7708V38.6825H302.138V18.7708H298.896Z" fill="#F56E05"/>
</svg>
